<svg width="1070" height="262" viewBox="0 0 1070 262" fill="none" xmlns="http://www.w3.org/2000/svg">
<path d="M103.989 89V52.6364H110.576V68.0305H127.426V52.6364H134.032V89H127.426V73.5526H110.576V89H103.989ZM152.808 89.5327C150.145 89.5327 147.837 88.9467 145.884 87.7749C143.93 86.603 142.415 84.9635 141.338 82.8565C140.273 80.7495 139.74 78.2874 139.74 75.4702C139.74 72.6529 140.273 70.1849 141.338 68.0661C142.415 65.9472 143.93 64.3018 145.884 63.13C147.837 61.9581 150.145 61.3722 152.808 61.3722C155.472 61.3722 157.78 61.9581 159.733 63.13C161.686 64.3018 163.195 65.9472 164.261 68.0661C165.338 70.1849 165.876 72.6529 165.876 75.4702C165.876 78.2874 165.338 80.7495 164.261 82.8565C163.195 84.9635 161.686 86.603 159.733 87.7749C157.78 88.9467 155.472 89.5327 152.808 89.5327ZM152.844 84.3835C154.288 84.3835 155.495 83.987 156.466 83.1939C157.437 82.389 158.159 81.3118 158.632 79.9624C159.117 78.6129 159.36 77.1096 159.36 75.4524C159.36 73.7834 159.117 72.2741 158.632 70.9247C158.159 69.5634 157.437 68.4804 156.466 67.6754C155.495 66.8705 154.288 66.468 152.844 66.468C151.364 66.468 150.133 66.8705 149.151 67.6754C148.18 68.4804 147.452 69.5634 146.967 70.9247C146.493 72.2741 146.256 73.7834 146.256 75.4524C146.256 77.1096 146.493 78.6129 146.967 79.9624C147.452 81.3118 148.18 82.389 149.151 83.1939C150.133 83.987 151.364 84.3835 152.844 84.3835ZM177.759 52.6364V89H171.332V52.6364H177.759ZM192.217 89.5504C190.489 89.5504 188.932 89.2427 187.547 88.6271C186.174 87.9998 185.085 87.0765 184.28 85.8572C183.487 84.638 183.091 83.1347 183.091 81.3473C183.091 79.8085 183.375 78.536 183.943 77.5298C184.511 76.5237 185.286 75.7188 186.269 75.1151C187.251 74.5114 188.358 74.0556 189.589 73.7479C190.832 73.4283 192.116 73.1974 193.442 73.0554C195.04 72.8897 196.336 72.7417 197.331 72.6115C198.325 72.4695 199.047 72.2564 199.497 71.9723C199.958 71.6764 200.189 71.2206 200.189 70.6051V70.4986C200.189 69.161 199.793 68.1252 199 67.3913C198.207 66.6574 197.064 66.2905 195.573 66.2905C193.998 66.2905 192.75 66.6338 191.826 67.3203C190.915 68.0069 190.299 68.8177 189.98 69.7528L183.978 68.9006C184.452 67.2434 185.233 65.8584 186.322 64.7457C187.411 63.6212 188.743 62.7808 190.317 62.2244C191.891 61.6562 193.632 61.3722 195.537 61.3722C196.851 61.3722 198.159 61.526 199.461 61.8338C200.763 62.1416 201.953 62.6506 203.03 63.3608C204.107 64.0592 204.971 65.0121 205.623 66.2195C206.285 67.4268 206.617 68.9361 206.617 70.7472V89H200.438V85.2536H200.225C199.834 86.0111 199.284 86.7214 198.574 87.3842C197.875 88.0353 196.993 88.562 195.928 88.9645C194.874 89.3551 193.637 89.5504 192.217 89.5504ZM193.886 84.8274C195.176 84.8274 196.295 84.5729 197.242 84.0639C198.189 83.5431 198.917 82.8565 199.426 82.0043C199.947 81.152 200.207 80.2228 200.207 79.2166V76.0028C200.006 76.1686 199.663 76.3224 199.177 76.4645C198.704 76.6065 198.171 76.7308 197.579 76.8374C196.987 76.9439 196.401 77.0386 195.821 77.1214C195.241 77.2043 194.738 77.2753 194.312 77.3345C193.353 77.4647 192.495 77.6778 191.738 77.9737C190.98 78.2696 190.382 78.6839 189.944 79.2166C189.506 79.7375 189.287 80.4122 189.287 81.2408C189.287 82.4245 189.719 83.3182 190.583 83.9219C191.448 84.5256 192.548 84.8274 193.886 84.8274ZM220.626 84.0284L220.395 85.9815C220.23 87.473 219.934 88.9882 219.507 90.527C219.093 92.0777 218.655 93.504 218.194 94.8061C217.732 96.1082 217.359 97.1321 217.075 97.8778H212.743C212.908 97.1558 213.133 96.1733 213.417 94.9304C213.713 93.6875 213.997 92.2907 214.27 90.7401C214.542 89.1894 214.725 87.6151 214.82 86.017L214.944 84.0284H220.626ZM260.661 68.9361L254.801 69.5753C254.636 68.9834 254.346 68.4271 253.931 67.9062C253.529 67.3854 252.984 66.9652 252.298 66.6456C251.611 66.326 250.771 66.1662 249.776 66.1662C248.439 66.1662 247.314 66.4562 246.403 67.0362C245.503 67.6162 245.059 68.3679 245.071 69.2912C245.059 70.0843 245.349 70.7294 245.941 71.2266C246.545 71.7237 247.539 72.1321 248.924 72.4517L253.576 73.446C256.157 74.0024 258.074 74.8842 259.329 76.0916C260.596 77.299 261.235 78.8793 261.247 80.8324C261.235 82.5488 260.732 84.0639 259.737 85.3778C258.755 86.6799 257.388 87.6979 255.636 88.4318C253.884 89.1657 251.872 89.5327 249.599 89.5327C246.261 89.5327 243.574 88.8343 241.538 87.4375C239.502 86.0289 238.289 84.0698 237.898 81.5604L244.166 80.9567C244.45 82.1877 245.053 83.117 245.977 83.7443C246.9 84.3717 248.102 84.6854 249.581 84.6854C251.108 84.6854 252.333 84.3717 253.257 83.7443C254.192 83.117 254.659 82.3416 254.659 81.4183C254.659 80.6371 254.357 79.992 253.754 79.483C253.162 78.974 252.239 78.5833 250.984 78.3111L246.332 77.3345C243.716 76.79 241.78 75.8726 240.526 74.5824C239.271 73.2803 238.65 71.6349 238.661 69.6463C238.65 67.9654 239.105 66.5095 240.029 65.2784C240.964 64.0355 242.26 63.0767 243.917 62.402C245.586 61.7154 247.51 61.3722 249.688 61.3722C252.884 61.3722 255.399 62.0528 257.234 63.4141C259.08 64.7753 260.223 66.616 260.661 68.9361ZM278.443 89.5327C275.78 89.5327 273.471 88.9467 271.518 87.7749C269.565 86.603 268.05 84.9635 266.973 82.8565C265.907 80.7495 265.375 78.2874 265.375 75.4702C265.375 72.6529 265.907 70.1849 266.973 68.0661C268.05 65.9472 269.565 64.3018 271.518 63.13C273.471 61.9581 275.78 61.3722 278.443 61.3722C281.106 61.3722 283.415 61.9581 285.368 63.13C287.321 64.3018 288.83 65.9472 289.895 68.0661C290.973 70.1849 291.511 72.6529 291.511 75.4702C291.511 78.2874 290.973 80.7495 289.895 82.8565C288.83 84.9635 287.321 86.603 285.368 87.7749C283.415 88.9467 281.106 89.5327 278.443 89.5327ZM278.479 84.3835C279.923 84.3835 281.13 83.987 282.101 83.1939C283.071 82.389 283.793 81.3118 284.267 79.9624C284.752 78.6129 284.995 77.1096 284.995 75.4524C284.995 73.7834 284.752 72.2741 284.267 70.9247C283.793 69.5634 283.071 68.4804 282.101 67.6754C281.13 66.8705 279.923 66.468 278.479 66.468C276.999 66.468 275.768 66.8705 274.785 67.6754C273.815 68.4804 273.087 69.5634 272.601 70.9247C272.128 72.2741 271.891 73.7834 271.891 75.4524C271.891 77.1096 272.128 78.6129 272.601 79.9624C273.087 81.3118 273.815 82.389 274.785 83.1939C275.768 83.987 276.999 84.3835 278.479 84.3835ZM300.034 99.2273C299.158 99.2273 298.347 99.1563 297.601 99.0142C296.867 98.884 296.282 98.7301 295.844 98.5526L297.335 93.5455C298.27 93.8177 299.105 93.9479 299.839 93.9361C300.573 93.9242 301.218 93.6934 301.774 93.2436C302.342 92.8056 302.822 92.0717 303.212 91.0419L303.763 89.5682L293.873 61.7273H300.691L306.976 82.3239H307.26L313.564 61.7273H320.4L309.48 92.3026C308.971 93.7467 308.296 94.9837 307.456 96.0135C306.615 97.0552 305.586 97.8482 304.366 98.3928C303.159 98.9491 301.715 99.2273 300.034 99.2273ZM351.881 52.6364H358.415V78.2045C358.403 80.5483 357.906 82.5665 356.923 84.2592C355.941 85.9401 354.568 87.2363 352.804 88.1477C351.052 89.0473 349.01 89.4972 346.678 89.4972C344.547 89.4972 342.63 89.1184 340.925 88.3608C339.233 87.5914 337.889 86.455 336.895 84.9517C335.9 83.4484 335.403 81.5781 335.403 79.3409H341.955C341.967 80.3234 342.18 81.1697 342.594 81.88C343.02 82.5902 343.606 83.1347 344.352 83.5135C345.098 83.8923 345.956 84.0817 346.927 84.0817C347.98 84.0817 348.874 83.8627 349.608 83.4247C350.342 82.9749 350.898 82.312 351.277 81.4361C351.667 80.5601 351.869 79.483 351.881 78.2045V52.6364ZM382.66 77.5298V61.7273H389.088V89H382.855V84.1527H382.571C381.956 85.6797 380.944 86.9285 379.535 87.8991C378.138 88.8698 376.416 89.3551 374.368 89.3551C372.581 89.3551 371 88.9586 369.627 88.1655C368.266 87.3606 367.201 86.1946 366.431 84.6676C365.662 83.1288 365.277 81.2704 365.277 79.0923V61.7273H371.705V78.098C371.705 79.8262 372.178 81.1993 373.125 82.2173C374.072 83.2353 375.315 83.7443 376.854 83.7443C377.801 83.7443 378.718 83.5135 379.606 83.0518C380.494 82.5902 381.222 81.9036 381.79 80.9922C382.37 80.0689 382.66 78.9148 382.66 77.5298ZM403.545 89.5504C401.817 89.5504 400.26 89.2427 398.875 88.6271C397.502 87.9998 396.413 87.0765 395.608 85.8572C394.815 84.638 394.419 83.1347 394.419 81.3473C394.419 79.8085 394.703 78.536 395.271 77.5298C395.839 76.5237 396.614 75.7188 397.597 75.1151C398.579 74.5114 399.686 74.0556 400.917 73.7479C402.16 73.4283 403.444 73.1974 404.77 73.0554C406.368 72.8897 407.664 72.7417 408.659 72.6115C409.653 72.4695 410.375 72.2564 410.825 71.9723C411.287 71.6764 411.517 71.2206 411.517 70.6051V70.4986C411.517 69.161 411.121 68.1252 410.328 67.3913C409.535 66.6574 408.392 66.2905 406.901 66.2905C405.327 66.2905 404.078 66.6338 403.154 67.3203C402.243 68.0069 401.627 68.8177 401.308 69.7528L395.306 68.9006C395.78 67.2434 396.561 65.8584 397.65 64.7457C398.739 63.6212 400.071 62.7808 401.645 62.2244C403.22 61.6562 404.96 61.3722 406.865 61.3722C408.179 61.3722 409.487 61.526 410.789 61.8338C412.092 62.1416 413.281 62.6506 414.358 63.3608C415.435 64.0592 416.3 65.0121 416.951 66.2195C417.614 67.4268 417.945 68.9361 417.945 70.7472V89H411.766V85.2536H411.553C411.162 86.0111 410.612 86.7214 409.902 87.3842C409.203 88.0353 408.321 88.562 407.256 88.9645C406.203 89.3551 404.966 89.5504 403.545 89.5504ZM405.214 84.8274C406.504 84.8274 407.623 84.5729 408.57 84.0639C409.517 83.5431 410.245 82.8565 410.754 82.0043C411.275 81.152 411.535 80.2228 411.535 79.2166V76.0028C411.334 76.1686 410.991 76.3224 410.505 76.4645C410.032 76.6065 409.499 76.7308 408.907 76.8374C408.315 76.9439 407.73 77.0386 407.15 77.1214C406.569 77.2043 406.066 77.2753 405.64 77.3345C404.681 77.4647 403.823 77.6778 403.066 77.9737C402.308 78.2696 401.71 78.6839 401.272 79.2166C400.834 79.7375 400.615 80.4122 400.615 81.2408C400.615 82.4245 401.047 83.3182 401.912 83.9219C402.776 84.5256 403.877 84.8274 405.214 84.8274ZM430.836 73.0199V89H424.408V61.7273H430.551V66.3615H430.871C431.498 64.8345 432.499 63.6212 433.872 62.7216C435.257 61.822 436.967 61.3722 439.003 61.3722C440.885 61.3722 442.525 61.7746 443.922 62.5795C445.33 63.3845 446.419 64.5504 447.189 66.0774C447.97 67.6044 448.355 69.4569 448.343 71.6349V89H441.915V72.6293C441.915 70.8063 441.442 69.38 440.495 68.3501C439.56 67.3203 438.263 66.8054 436.606 66.8054C435.482 66.8054 434.481 67.054 433.605 67.5511C432.741 68.0365 432.061 68.7408 431.564 69.6641C431.078 70.5874 430.836 71.706 430.836 73.0199ZM498.689 64.9055H492.048C491.859 63.8165 491.51 62.8518 491.001 62.0114C490.492 61.1591 489.858 60.437 489.101 59.8452C488.343 59.2533 487.479 58.8094 486.509 58.5135C485.55 58.2057 484.514 58.0518 483.401 58.0518C481.424 58.0518 479.673 58.549 478.146 59.5433C476.619 60.5258 475.423 61.9699 474.559 63.8757C473.695 65.7696 473.263 68.0838 473.263 70.8182C473.263 73.5999 473.695 75.9437 474.559 77.8494C475.435 79.7434 476.63 81.1757 478.146 82.1463C479.673 83.1051 481.419 83.5845 483.384 83.5845C484.473 83.5845 485.491 83.4425 486.438 83.1584C487.396 82.8625 488.254 82.4304 489.012 81.8622C489.781 81.294 490.427 80.5956 490.947 79.767C491.48 78.9384 491.847 77.9915 492.048 76.9261L498.689 76.9616C498.44 78.6899 497.902 80.3116 497.073 81.8267C496.256 83.3419 495.185 84.6795 493.859 85.8395C492.534 86.9877 490.983 87.8873 489.207 88.5384C487.432 89.1776 485.461 89.4972 483.295 89.4972C480.099 89.4972 477.246 88.7573 474.737 87.2777C472.227 85.7981 470.25 83.6615 468.806 80.8679C467.362 78.0743 466.64 74.7244 466.64 70.8182C466.64 66.9001 467.368 63.5502 468.824 60.7685C470.28 57.9749 472.263 55.8383 474.772 54.3587C477.281 52.879 480.122 52.1392 483.295 52.1392C485.319 52.1392 487.201 52.4233 488.941 52.9915C490.681 53.5597 492.232 54.3942 493.593 55.495C494.954 56.584 496.073 57.9216 496.949 59.5078C497.837 61.0821 498.417 62.8814 498.689 64.9055ZM512.285 89.5504C510.557 89.5504 509.001 89.2427 507.616 88.6271C506.242 87.9998 505.153 87.0765 504.349 85.8572C503.555 84.638 503.159 83.1347 503.159 81.3473C503.159 79.8085 503.443 78.536 504.011 77.5298C504.579 76.5237 505.355 75.7188 506.337 75.1151C507.32 74.5114 508.426 74.0556 509.657 73.7479C510.9 73.4283 512.185 73.1974 513.51 73.0554C515.108 72.8897 516.405 72.7417 517.399 72.6115C518.393 72.4695 519.115 72.2564 519.565 71.9723C520.027 71.6764 520.258 71.2206 520.258 70.6051V70.4986C520.258 69.161 519.861 68.1252 519.068 67.3913C518.275 66.6574 517.133 66.2905 515.641 66.2905C514.067 66.2905 512.818 66.6338 511.895 67.3203C510.983 68.0069 510.368 68.8177 510.048 69.7528L504.047 68.9006C504.52 67.2434 505.301 65.8584 506.39 64.7457C507.479 63.6212 508.811 62.7808 510.385 62.2244C511.96 61.6562 513.7 61.3722 515.606 61.3722C516.92 61.3722 518.228 61.526 519.53 61.8338C520.832 62.1416 522.021 62.6506 523.099 63.3608C524.176 64.0592 525.04 65.0121 525.691 66.2195C526.354 67.4268 526.685 68.9361 526.685 70.7472V89H520.506V85.2536H520.293C519.903 86.0111 519.352 86.7214 518.642 87.3842C517.943 88.0353 517.062 88.562 515.996 88.9645C514.943 89.3551 513.706 89.5504 512.285 89.5504ZM513.954 84.8274C515.245 84.8274 516.363 84.5729 517.31 84.0639C518.257 83.5431 518.985 82.8565 519.494 82.0043C520.015 81.152 520.275 80.2228 520.275 79.2166V76.0028C520.074 76.1686 519.731 76.3224 519.246 76.4645C518.772 76.6065 518.239 76.7308 517.648 76.8374C517.056 76.9439 516.47 77.0386 515.89 77.1214C515.31 77.2043 514.807 77.2753 514.381 77.3345C513.422 77.4647 512.564 77.6778 511.806 77.9737C511.048 78.2696 510.451 78.6839 510.013 79.2166C509.575 79.7375 509.356 80.4122 509.356 81.2408C509.356 82.4245 509.788 83.3182 510.652 83.9219C511.516 84.5256 512.617 84.8274 513.954 84.8274ZM533.148 89V61.7273H539.292V66.3615H539.611C540.18 64.799 541.121 63.5798 542.434 62.7038C543.748 61.8161 545.317 61.3722 547.14 61.3722C548.986 61.3722 550.543 61.822 551.809 62.7216C553.088 63.6094 553.988 64.8227 554.508 66.3615H554.792C555.396 64.8464 556.414 63.639 557.846 62.7393C559.291 61.8279 561.001 61.3722 562.978 61.3722C565.487 61.3722 567.535 62.1652 569.121 63.7514C570.707 65.3376 571.501 67.6518 571.501 70.6939V89H565.055V71.6882C565.055 69.9955 564.605 68.7585 563.706 67.9773C562.806 67.1842 561.705 66.7876 560.403 66.7876C558.853 66.7876 557.639 67.273 556.763 68.2436C555.899 69.2024 555.467 70.4512 555.467 71.9901V89H549.164V71.4219C549.164 70.0133 548.738 68.8887 547.885 68.0483C547.045 67.2079 545.944 66.7876 544.583 66.7876C543.66 66.7876 542.819 67.0244 542.062 67.4979C541.304 67.9595 540.7 68.6165 540.251 69.4688C539.801 70.3092 539.576 71.2917 539.576 72.4162V89H533.148ZM578.021 89V61.7273H584.449V89H578.021ZM581.253 57.8565C580.235 57.8565 579.359 57.5192 578.625 56.8445C577.891 56.1579 577.524 55.3352 577.524 54.3764C577.524 53.4058 577.891 52.5831 578.625 51.9084C579.359 51.2218 580.235 50.8786 581.253 50.8786C582.283 50.8786 583.159 51.2218 583.881 51.9084C584.615 52.5831 584.982 53.4058 584.982 54.3764C584.982 55.3352 584.615 56.1579 583.881 56.8445C583.159 57.5192 582.283 57.8565 581.253 57.8565ZM597.486 52.6364V89H591.058V52.6364H597.486ZM615.992 89.5327C613.328 89.5327 611.02 88.9467 609.067 87.7749C607.114 86.603 605.599 84.9635 604.522 82.8565C603.456 80.7495 602.924 78.2874 602.924 75.4702C602.924 72.6529 603.456 70.1849 604.522 68.0661C605.599 65.9472 607.114 64.3018 609.067 63.13C611.02 61.9581 613.328 61.3722 615.992 61.3722C618.655 61.3722 620.963 61.9581 622.917 63.13C624.87 64.3018 626.379 65.9472 627.444 68.0661C628.521 70.1849 629.06 72.6529 629.06 75.4702C629.06 78.2874 628.521 80.7495 627.444 82.8565C626.379 84.9635 624.87 86.603 622.917 87.7749C620.963 88.9467 618.655 89.5327 615.992 89.5327ZM616.027 84.3835C617.471 84.3835 618.679 83.987 619.65 83.1939C620.62 82.389 621.342 81.3118 621.816 79.9624C622.301 78.6129 622.544 77.1096 622.544 75.4524C622.544 73.7834 622.301 72.2741 621.816 70.9247C621.342 69.5634 620.62 68.4804 619.65 67.6754C618.679 66.8705 617.471 66.468 616.027 66.468C614.548 66.468 613.317 66.8705 612.334 67.6754C611.364 68.4804 610.636 69.5634 610.15 70.9247C609.677 72.2741 609.44 73.7834 609.44 75.4524C609.44 77.1096 609.677 78.6129 610.15 79.9624C610.636 81.3118 611.364 82.389 612.334 83.1939C613.317 83.987 614.548 84.3835 616.027 84.3835ZM678.328 64.9055H671.687C671.498 63.8165 671.148 62.8518 670.639 62.0114C670.13 61.1591 669.497 60.437 668.74 59.8452C667.982 59.2533 667.118 58.8094 666.147 58.5135C665.188 58.2057 664.153 58.0518 663.04 58.0518C661.063 58.0518 659.311 58.549 657.784 59.5433C656.257 60.5258 655.062 61.9699 654.198 63.8757C653.334 65.7696 652.901 68.0838 652.901 70.8182C652.901 73.5999 653.334 75.9437 654.198 77.8494C655.074 79.7434 656.269 81.1757 657.784 82.1463C659.311 83.1051 661.057 83.5845 663.022 83.5845C664.111 83.5845 665.129 83.4425 666.076 83.1584C667.035 82.8625 667.893 82.4304 668.651 81.8622C669.42 81.294 670.065 80.5956 670.586 79.767C671.119 78.9384 671.486 77.9915 671.687 76.9261L678.328 76.9616C678.079 78.6899 677.54 80.3116 676.712 81.8267C675.895 83.3419 674.824 84.6795 673.498 85.8395C672.172 86.9877 670.622 87.8873 668.846 88.5384C667.07 89.1776 665.1 89.4972 662.933 89.4972C659.737 89.4972 656.885 88.7573 654.375 87.2777C651.866 85.7981 649.889 83.6615 648.445 80.8679C647.001 78.0743 646.279 74.7244 646.279 70.8182C646.279 66.9001 647.007 63.5502 648.463 60.7685C649.919 57.9749 651.901 55.8383 654.411 54.3587C656.92 52.879 659.761 52.1392 662.933 52.1392C664.958 52.1392 666.84 52.4233 668.58 52.9915C670.32 53.5597 671.87 54.3942 673.232 55.495C674.593 56.584 675.712 57.9216 676.588 59.5078C677.475 61.0821 678.055 62.8814 678.328 64.9055ZM701.459 77.5298V61.7273H707.886V89H701.654V84.1527H701.37C700.754 85.6797 699.742 86.9285 698.334 87.8991C696.937 88.8698 695.215 89.3551 693.167 89.3551C691.379 89.3551 689.799 88.9586 688.426 88.1655C687.065 87.3606 686 86.1946 685.23 84.6676C684.461 83.1288 684.076 81.2704 684.076 79.0923V61.7273H690.504V78.098C690.504 79.8262 690.977 81.1993 691.924 82.2173C692.871 83.2353 694.114 83.7443 695.653 83.7443C696.6 83.7443 697.517 83.5135 698.405 83.0518C699.293 82.5902 700.021 81.9036 700.589 80.9922C701.169 80.0689 701.459 78.9148 701.459 77.5298ZM726.57 89.5327C723.835 89.5327 721.474 88.9645 719.485 87.8281C717.508 86.6799 715.987 85.0582 714.922 82.9631C713.857 80.8561 713.324 78.3762 713.324 75.5234C713.324 72.718 713.857 70.2559 714.922 68.1371C715.999 66.0064 717.503 64.3492 719.432 63.1655C721.361 61.9699 723.628 61.3722 726.232 61.3722C727.913 61.3722 729.499 61.6444 730.991 62.1889C732.494 62.7216 733.82 63.5502 734.968 64.6747C736.128 65.7992 737.04 67.2315 737.703 68.9716C738.365 70.6998 738.697 72.7595 738.697 75.1506V77.1214H716.343V72.7891H732.536C732.524 71.558 732.258 70.4631 731.737 69.5043C731.216 68.5336 730.488 67.7701 729.553 67.2138C728.629 66.6574 727.552 66.3793 726.321 66.3793C725.007 66.3793 723.853 66.6989 722.859 67.3381C721.865 67.9654 721.089 68.794 720.533 69.8239C719.988 70.8419 719.71 71.9605 719.698 73.1797V76.9616C719.698 78.5478 719.988 79.9091 720.568 81.0455C721.148 82.17 721.959 83.0341 723.001 83.6378C724.043 84.2296 725.262 84.5256 726.659 84.5256C727.594 84.5256 728.44 84.3954 729.198 84.1349C729.955 83.8627 730.612 83.4661 731.169 82.9453C731.725 82.4245 732.145 81.7794 732.429 81.0099L738.431 81.6847C738.052 83.2708 737.33 84.6558 736.264 85.8395C735.211 87.0114 733.861 87.9228 732.216 88.5739C730.571 89.2131 728.689 89.5327 726.57 89.5327ZM750.562 73.0199V89H744.135V61.7273H750.278V66.3615H750.598C751.225 64.8345 752.225 63.6212 753.598 62.7216C754.983 61.822 756.694 61.3722 758.73 61.3722C760.612 61.3722 762.251 61.7746 763.648 62.5795C765.057 63.3845 766.146 64.5504 766.915 66.0774C767.696 67.6044 768.081 69.4569 768.069 71.6349V89H761.642V72.6293C761.642 70.8063 761.168 69.38 760.221 68.3501C759.286 67.3203 757.99 66.8054 756.333 66.8054C755.208 66.8054 754.208 67.054 753.332 67.5511C752.468 68.0365 751.787 68.7408 751.29 69.6641C750.805 70.5874 750.562 71.706 750.562 73.0199ZM786.5 89.5327C783.777 89.5327 781.439 88.9349 779.486 87.7393C777.545 86.5438 776.047 84.8925 774.994 82.7855C773.952 80.6667 773.431 78.2282 773.431 75.4702C773.431 72.7003 773.964 70.2559 775.029 68.1371C776.095 66.0064 777.598 64.3492 779.539 63.1655C781.493 61.9699 783.801 61.3722 786.464 61.3722C788.678 61.3722 790.637 61.7805 792.341 62.5973C794.058 63.4022 795.425 64.5445 796.443 66.0241C797.461 67.492 798.041 69.2083 798.183 71.1733H792.039C791.791 69.8594 791.199 68.7644 790.264 67.8885C789.341 67.0007 788.104 66.5568 786.553 66.5568C785.239 66.5568 784.085 66.9119 783.091 67.6222C782.096 68.3205 781.321 69.3267 780.765 70.6406C780.22 71.9545 779.948 73.5289 779.948 75.3636C779.948 77.2221 780.22 78.8201 780.765 80.1577C781.309 81.4834 782.073 82.5073 783.055 83.2294C784.049 83.9396 785.215 84.2947 786.553 84.2947C787.5 84.2947 788.346 84.1172 789.092 83.7621C789.85 83.3951 790.483 82.8684 790.992 82.1818C791.501 81.4953 791.85 80.6607 792.039 79.6783H798.183C798.029 81.6077 797.461 83.3182 796.478 84.8097C795.496 86.2893 794.158 87.4493 792.466 88.2898C790.773 89.1184 788.784 89.5327 786.5 89.5327ZM811.309 89.5504C809.581 89.5504 808.024 89.2427 806.639 88.6271C805.266 87.9998 804.177 87.0765 803.372 85.8572C802.579 84.638 802.182 83.1347 802.182 81.3473C802.182 79.8085 802.466 78.536 803.035 77.5298C803.603 76.5237 804.378 75.7188 805.361 75.1151C806.343 74.5114 807.45 74.0556 808.681 73.7479C809.924 73.4283 811.208 73.1974 812.534 73.0554C814.132 72.8897 815.428 72.7417 816.422 72.6115C817.417 72.4695 818.139 72.2564 818.589 71.9723C819.05 71.6764 819.281 71.2206 819.281 70.6051V70.4986C819.281 69.161 818.885 68.1252 818.091 67.3913C817.298 66.6574 816.156 66.2905 814.665 66.2905C813.09 66.2905 811.841 66.6338 810.918 67.3203C810.007 68.0069 809.391 68.8177 809.072 69.7528L803.07 68.9006C803.544 67.2434 804.325 65.8584 805.414 64.7457C806.503 63.6212 807.835 62.7808 809.409 62.2244C810.983 61.6562 812.723 61.3722 814.629 61.3722C815.943 61.3722 817.251 61.526 818.553 61.8338C819.855 62.1416 821.045 62.6506 822.122 63.3608C823.199 64.0592 824.063 65.0121 824.714 66.2195C825.377 67.4268 825.709 68.9361 825.709 70.7472V89H819.53V85.2536H819.317C818.926 86.0111 818.376 86.7214 817.665 87.3842C816.967 88.0353 816.085 88.562 815.02 88.9645C813.966 89.3551 812.729 89.5504 811.309 89.5504ZM812.978 84.8274C814.268 84.8274 815.387 84.5729 816.334 84.0639C817.281 83.5431 818.009 82.8565 818.518 82.0043C819.038 81.152 819.299 80.2228 819.299 79.2166V76.0028C819.098 76.1686 818.754 76.3224 818.269 76.4645C817.796 76.6065 817.263 76.7308 816.671 76.8374C816.079 76.9439 815.493 77.0386 814.913 77.1214C814.333 77.2043 813.83 77.2753 813.404 77.3345C812.445 77.4647 811.587 77.6778 810.829 77.9737C810.072 78.2696 809.474 78.6839 809.036 79.2166C808.598 79.7375 808.379 80.4122 808.379 81.2408C808.379 82.4245 808.811 83.3182 809.675 83.9219C810.539 84.5256 811.64 84.8274 812.978 84.8274ZM111.349 123.633C111.183 122.082 110.485 120.875 109.254 120.011C108.034 119.147 106.448 118.714 104.495 118.714C103.122 118.714 101.944 118.922 100.962 119.336C99.9792 119.75 99.2275 120.312 98.7067 121.023C98.1858 121.733 97.9195 122.544 97.9077 123.455C97.9077 124.213 98.0793 124.87 98.4226 125.426C98.7777 125.982 99.2571 126.456 99.8608 126.847C100.464 127.225 101.133 127.545 101.867 127.805C102.601 128.066 103.341 128.285 104.087 128.462L107.496 129.315C108.869 129.634 110.189 130.066 111.455 130.611C112.734 131.155 113.876 131.842 114.882 132.67C115.9 133.499 116.705 134.499 117.297 135.671C117.889 136.843 118.185 138.216 118.185 139.79C118.185 141.921 117.64 143.797 116.551 145.419C115.462 147.029 113.888 148.29 111.828 149.201C109.78 150.101 107.3 150.55 104.388 150.55C101.559 150.55 99.1032 150.112 97.0199 149.237C94.9484 148.361 93.3267 147.082 92.1548 145.401C90.9948 143.72 90.3674 141.673 90.2727 139.258H96.7536C96.8482 140.524 97.2389 141.578 97.9254 142.418C98.612 143.259 99.5057 143.886 100.607 144.3C101.719 144.715 102.962 144.922 104.335 144.922C105.768 144.922 107.022 144.709 108.099 144.283C109.188 143.845 110.041 143.241 110.656 142.472C111.272 141.69 111.585 140.779 111.597 139.737C111.585 138.79 111.307 138.009 110.763 137.393C110.218 136.766 109.455 136.245 108.472 135.831C107.502 135.405 106.365 135.026 105.063 134.695L100.926 133.629C97.9313 132.86 95.5639 131.694 93.8239 130.131C92.0956 128.557 91.2315 126.468 91.2315 123.864C91.2315 121.721 91.8116 119.845 92.9716 118.235C94.1435 116.625 95.7356 115.376 97.7479 114.489C99.7602 113.589 102.039 113.139 104.584 113.139C107.164 113.139 109.425 113.589 111.366 114.489C113.32 115.376 114.853 116.613 115.965 118.2C117.078 119.774 117.652 121.585 117.688 123.633H111.349ZM135.847 150.533C133.113 150.533 130.751 149.964 128.763 148.828C126.786 147.68 125.265 146.058 124.199 143.963C123.134 141.856 122.601 139.376 122.601 136.523C122.601 133.718 123.134 131.256 124.199 129.137C125.277 127.006 126.78 125.349 128.709 124.165C130.639 122.97 132.906 122.372 135.51 122.372C137.191 122.372 138.777 122.644 140.268 123.189C141.772 123.722 143.097 124.55 144.246 125.675C145.406 126.799 146.317 128.232 146.98 129.972C147.643 131.7 147.974 133.759 147.974 136.151V138.121H125.62V133.789H141.813C141.801 132.558 141.535 131.463 141.014 130.504C140.493 129.534 139.765 128.77 138.83 128.214C137.907 127.657 136.83 127.379 135.599 127.379C134.285 127.379 133.131 127.699 132.136 128.338C131.142 128.965 130.367 129.794 129.81 130.824C129.266 131.842 128.988 132.96 128.976 134.18V137.962C128.976 139.548 129.266 140.909 129.846 142.045C130.426 143.17 131.237 144.034 132.278 144.638C133.32 145.23 134.539 145.526 135.936 145.526C136.871 145.526 137.717 145.395 138.475 145.135C139.233 144.863 139.89 144.466 140.446 143.945C141.002 143.424 141.422 142.779 141.706 142.01L147.708 142.685C147.329 144.271 146.607 145.656 145.542 146.839C144.488 148.011 143.139 148.923 141.493 149.574C139.848 150.213 137.966 150.533 135.847 150.533ZM153.412 160.227V122.727H159.733V127.237H160.106C160.437 126.574 160.905 125.87 161.509 125.124C162.112 124.367 162.929 123.722 163.959 123.189C164.989 122.644 166.303 122.372 167.901 122.372C170.008 122.372 171.907 122.911 173.6 123.988C175.305 125.053 176.654 126.634 177.648 128.729C178.655 130.812 179.158 133.369 179.158 136.399C179.158 139.394 178.666 141.939 177.684 144.034C176.701 146.129 175.364 147.727 173.671 148.828C171.978 149.929 170.061 150.479 167.918 150.479C166.356 150.479 165.06 150.219 164.03 149.698C163 149.177 162.171 148.55 161.544 147.816C160.929 147.07 160.449 146.366 160.106 145.703H159.839V160.227H153.412ZM159.715 136.364C159.715 138.127 159.964 139.672 160.461 140.998C160.97 142.324 161.698 143.359 162.645 144.105C163.604 144.839 164.764 145.206 166.125 145.206C167.545 145.206 168.735 144.827 169.694 144.07C170.653 143.3 171.375 142.253 171.86 140.927C172.357 139.589 172.606 138.068 172.606 136.364C172.606 134.671 172.363 133.168 171.878 131.854C171.393 130.54 170.67 129.51 169.712 128.764C168.753 128.018 167.557 127.646 166.125 127.646C164.752 127.646 163.586 128.007 162.627 128.729C161.668 129.451 160.94 130.463 160.443 131.765C159.958 133.067 159.715 134.6 159.715 136.364ZM202.045 138.53V122.727H208.472V150H202.24V145.153H201.956C201.34 146.68 200.328 147.929 198.92 148.899C197.523 149.87 195.801 150.355 193.753 150.355C191.965 150.355 190.385 149.959 189.012 149.165C187.651 148.361 186.585 147.195 185.816 145.668C185.047 144.129 184.662 142.27 184.662 140.092V122.727H191.089V139.098C191.089 140.826 191.563 142.199 192.51 143.217C193.457 144.235 194.7 144.744 196.239 144.744C197.186 144.744 198.103 144.513 198.991 144.052C199.879 143.59 200.607 142.904 201.175 141.992C201.755 141.069 202.045 139.915 202.045 138.53ZM194.143 119.141L198.121 111.026H204.406L198.955 119.141H194.143ZM221.509 113.636V150H215.082V113.636H221.509ZM252.48 122.727L242.767 150H235.665L225.953 122.727H232.806L239.074 142.987H239.358L245.644 122.727H252.48ZM268.074 150.533C265.339 150.533 262.978 149.964 260.989 148.828C259.012 147.68 257.491 146.058 256.426 143.963C255.361 141.856 254.828 139.376 254.828 136.523C254.828 133.718 255.361 131.256 256.426 129.137C257.503 127.006 259.006 125.349 260.936 124.165C262.865 122.97 265.132 122.372 267.736 122.372C269.417 122.372 271.003 122.644 272.495 123.189C273.998 123.722 275.324 124.55 276.472 125.675C277.632 126.799 278.544 128.232 279.206 129.972C279.869 131.7 280.201 133.759 280.201 136.151V138.121H257.846V133.789H274.04C274.028 132.558 273.761 131.463 273.241 130.504C272.72 129.534 271.992 128.77 271.057 128.214C270.133 127.657 269.056 127.379 267.825 127.379C266.511 127.379 265.357 127.699 264.363 128.338C263.368 128.965 262.593 129.794 262.037 130.824C261.492 131.842 261.214 132.96 261.202 134.18V137.962C261.202 139.548 261.492 140.909 262.072 142.045C262.652 143.17 263.463 144.034 264.505 144.638C265.546 145.23 266.766 145.526 268.162 145.526C269.098 145.526 269.944 145.395 270.702 145.135C271.459 144.863 272.116 144.466 272.672 143.945C273.229 143.424 273.649 142.779 273.933 142.01L279.934 142.685C279.556 144.271 278.834 145.656 277.768 146.839C276.715 148.011 275.365 148.923 273.72 149.574C272.075 150.213 270.193 150.533 268.074 150.533ZM295.759 150.479C293.617 150.479 291.699 149.929 290.006 148.828C288.314 147.727 286.976 146.129 285.994 144.034C285.011 141.939 284.52 139.394 284.52 136.399C284.52 133.369 285.017 130.812 286.011 128.729C287.018 126.634 288.373 125.053 290.077 123.988C291.782 122.911 293.682 122.372 295.777 122.372C297.375 122.372 298.689 122.644 299.719 123.189C300.749 123.722 301.565 124.367 302.169 125.124C302.773 125.87 303.24 126.574 303.572 127.237H303.838V113.636H310.283V150H303.962V145.703H303.572C303.24 146.366 302.761 147.07 302.134 147.816C301.506 148.55 300.678 149.177 299.648 149.698C298.618 150.219 297.322 150.479 295.759 150.479ZM297.553 145.206C298.914 145.206 300.074 144.839 301.033 144.105C301.991 143.359 302.719 142.324 303.217 140.998C303.714 139.672 303.962 138.127 303.962 136.364C303.962 134.6 303.714 133.067 303.217 131.765C302.731 130.463 302.009 129.451 301.05 128.729C300.103 128.007 298.938 127.646 297.553 127.646C296.12 127.646 294.925 128.018 293.966 128.764C293.007 129.51 292.285 130.54 291.8 131.854C291.314 133.168 291.072 134.671 291.072 136.364C291.072 138.068 291.314 139.589 291.8 140.927C292.297 142.253 293.025 143.3 293.984 144.07C294.954 144.827 296.144 145.206 297.553 145.206ZM324.981 150.55C323.252 150.55 321.696 150.243 320.311 149.627C318.938 149 317.849 148.076 317.044 146.857C316.251 145.638 315.854 144.135 315.854 142.347C315.854 140.808 316.138 139.536 316.706 138.53C317.275 137.524 318.05 136.719 319.032 136.115C320.015 135.511 321.122 135.056 322.353 134.748C323.596 134.428 324.88 134.197 326.206 134.055C327.804 133.89 329.1 133.742 330.094 133.612C331.089 133.469 331.811 133.256 332.26 132.972C332.722 132.676 332.953 132.221 332.953 131.605V131.499C332.953 130.161 332.556 129.125 331.763 128.391C330.97 127.657 329.828 127.29 328.336 127.29C326.762 127.29 325.513 127.634 324.59 128.32C323.679 129.007 323.063 129.818 322.743 130.753L316.742 129.901C317.215 128.243 317.997 126.858 319.086 125.746C320.175 124.621 321.506 123.781 323.081 123.224C324.655 122.656 326.395 122.372 328.301 122.372C329.615 122.372 330.923 122.526 332.225 122.834C333.527 123.142 334.717 123.651 335.794 124.361C336.871 125.059 337.735 126.012 338.386 127.219C339.049 128.427 339.381 129.936 339.381 131.747V150H333.202V146.254H332.988C332.598 147.011 332.047 147.721 331.337 148.384C330.639 149.035 329.757 149.562 328.692 149.964C327.638 150.355 326.401 150.55 324.981 150.55ZM326.65 145.827C327.94 145.827 329.059 145.573 330.006 145.064C330.952 144.543 331.68 143.857 332.189 143.004C332.71 142.152 332.971 141.223 332.971 140.217V137.003C332.769 137.169 332.426 137.322 331.941 137.464C331.467 137.607 330.935 137.731 330.343 137.837C329.751 137.944 329.165 138.039 328.585 138.121C328.005 138.204 327.502 138.275 327.076 138.335C326.117 138.465 325.259 138.678 324.501 138.974C323.744 139.27 323.146 139.684 322.708 140.217C322.27 140.737 322.051 141.412 322.051 142.241C322.051 143.424 322.483 144.318 323.347 144.922C324.211 145.526 325.312 145.827 326.65 145.827ZM353.39 145.028L353.159 146.982C352.993 148.473 352.697 149.988 352.271 151.527C351.857 153.078 351.419 154.504 350.957 155.806C350.496 157.108 350.123 158.132 349.839 158.878H345.506C345.672 158.156 345.897 157.173 346.181 155.93C346.477 154.688 346.761 153.291 347.033 151.74C347.305 150.189 347.489 148.615 347.584 147.017L347.708 145.028H353.39ZM378.74 113.636V150H372.153V113.636H378.74ZM392.017 134.02V150H385.59V122.727H391.733V127.362H392.053C392.68 125.835 393.68 124.621 395.053 123.722C396.438 122.822 398.149 122.372 400.185 122.372C402.067 122.372 403.706 122.775 405.103 123.58C406.512 124.384 407.601 125.55 408.37 127.077C409.151 128.604 409.536 130.457 409.524 132.635V150H403.097V133.629C403.097 131.806 402.623 130.38 401.676 129.35C400.741 128.32 399.445 127.805 397.788 127.805C396.663 127.805 395.663 128.054 394.787 128.551C393.923 129.036 393.242 129.741 392.745 130.664C392.26 131.587 392.017 132.706 392.017 134.02ZM427.919 160.795C425.611 160.795 423.628 160.482 421.971 159.854C420.314 159.239 418.982 158.41 417.976 157.369C416.97 156.327 416.271 155.173 415.881 153.906L421.669 152.504C421.93 153.036 422.308 153.563 422.806 154.084C423.303 154.616 423.972 155.054 424.812 155.398C425.664 155.753 426.735 155.93 428.026 155.93C429.849 155.93 431.358 155.487 432.553 154.599C433.749 153.723 434.347 152.279 434.347 150.266V145.099H434.027C433.696 145.762 433.21 146.443 432.571 147.141C431.944 147.84 431.109 148.426 430.068 148.899C429.038 149.373 427.742 149.609 426.179 149.609C424.084 149.609 422.184 149.118 420.48 148.136C418.787 147.141 417.437 145.662 416.431 143.697C415.437 141.72 414.94 139.246 414.94 136.275C414.94 133.28 415.437 130.753 416.431 128.693C417.437 126.622 418.793 125.053 420.497 123.988C422.202 122.911 424.102 122.372 426.197 122.372C427.795 122.372 429.109 122.644 430.139 123.189C431.18 123.722 432.009 124.367 432.624 125.124C433.24 125.87 433.708 126.574 434.027 127.237H434.382V122.727H440.721V150.444C440.721 152.776 440.165 154.705 439.052 156.232C437.939 157.759 436.418 158.902 434.489 159.659C432.559 160.417 430.369 160.795 427.919 160.795ZM427.972 144.567C429.334 144.567 430.494 144.235 431.453 143.572C432.411 142.91 433.139 141.957 433.637 140.714C434.134 139.471 434.382 137.979 434.382 136.239C434.382 134.523 434.134 133.02 433.637 131.729C433.151 130.439 432.429 129.439 431.47 128.729C430.523 128.007 429.357 127.646 427.972 127.646C426.54 127.646 425.345 128.018 424.386 128.764C423.427 129.51 422.705 130.534 422.22 131.836C421.734 133.126 421.492 134.594 421.492 136.239C421.492 137.908 421.734 139.37 422.22 140.625C422.717 141.868 423.445 142.839 424.404 143.537C425.374 144.223 426.564 144.567 427.972 144.567ZM459.382 150.533C456.648 150.533 454.286 149.964 452.298 148.828C450.321 147.68 448.8 146.058 447.735 143.963C446.669 141.856 446.137 139.376 446.137 136.523C446.137 133.718 446.669 131.256 447.735 129.137C448.812 127.006 450.315 125.349 452.244 124.165C454.174 122.97 456.441 122.372 459.045 122.372C460.726 122.372 462.312 122.644 463.803 123.189C465.307 123.722 466.633 124.55 467.781 125.675C468.941 126.799 469.852 128.232 470.515 129.972C471.178 131.7 471.509 133.759 471.509 136.151V138.121H449.155V133.789H465.348C465.336 132.558 465.07 131.463 464.549 130.504C464.028 129.534 463.3 128.77 462.365 128.214C461.442 127.657 460.365 127.379 459.134 127.379C457.82 127.379 456.666 127.699 455.671 128.338C454.677 128.965 453.902 129.794 453.345 130.824C452.801 131.842 452.523 132.96 452.511 134.18V137.962C452.511 139.548 452.801 140.909 453.381 142.045C453.961 143.17 454.772 144.034 455.813 144.638C456.855 145.23 458.074 145.526 459.471 145.526C460.406 145.526 461.253 145.395 462.01 145.135C462.768 144.863 463.425 144.466 463.981 143.945C464.537 143.424 464.958 142.779 465.242 142.01L471.243 142.685C470.864 144.271 470.142 145.656 469.077 146.839C468.023 148.011 466.674 148.923 465.029 149.574C463.383 150.213 461.501 150.533 459.382 150.533ZM483.375 134.02V150H476.947V122.727H483.091V127.362H483.41C484.038 125.835 485.038 124.621 486.411 123.722C487.796 122.822 489.506 122.372 491.542 122.372C493.424 122.372 495.064 122.775 496.461 123.58C497.869 124.384 498.958 125.55 499.728 127.077C500.509 128.604 500.894 130.457 500.882 132.635V150H494.454V133.629C494.454 131.806 493.981 130.38 493.034 129.35C492.099 128.32 490.802 127.805 489.145 127.805C488.021 127.805 487.02 128.054 486.145 128.551C485.28 129.036 484.6 129.741 484.103 130.664C483.617 131.587 483.375 132.706 483.375 134.02ZM507.416 150V122.727H513.843V150H507.416ZM510.647 118.857C509.629 118.857 508.753 118.519 508.02 117.844C507.286 117.158 506.919 116.335 506.919 115.376C506.919 114.406 507.286 113.583 508.02 112.908C508.753 112.222 509.629 111.879 510.647 111.879C511.677 111.879 512.553 112.222 513.275 112.908C514.009 113.583 514.376 114.406 514.376 115.376C514.376 116.335 514.009 117.158 513.275 117.844C512.553 118.519 511.677 118.857 510.647 118.857ZM532.527 150.533C529.792 150.533 527.431 149.964 525.442 148.828C523.465 147.68 521.944 146.058 520.879 143.963C519.814 141.856 519.281 139.376 519.281 136.523C519.281 133.718 519.814 131.256 520.879 129.137C521.956 127.006 523.46 125.349 525.389 124.165C527.318 122.97 529.585 122.372 532.189 122.372C533.87 122.372 535.456 122.644 536.948 123.189C538.451 123.722 539.777 124.55 540.925 125.675C542.085 126.799 542.997 128.232 543.66 129.972C544.323 131.7 544.654 133.759 544.654 136.151V138.121H522.3V133.789H538.493C538.481 132.558 538.215 131.463 537.694 130.504C537.173 129.534 536.445 128.77 535.51 128.214C534.586 127.657 533.509 127.379 532.278 127.379C530.964 127.379 529.81 127.699 528.816 128.338C527.822 128.965 527.046 129.794 526.49 130.824C525.945 131.842 525.667 132.96 525.655 134.18V137.962C525.655 139.548 525.945 140.909 526.525 142.045C527.105 143.17 527.916 144.034 528.958 144.638C530 145.23 531.219 145.526 532.616 145.526C533.551 145.526 534.397 145.395 535.155 145.135C535.912 144.863 536.569 144.466 537.126 143.945C537.682 143.424 538.102 142.779 538.386 142.01L544.388 142.685C544.009 144.271 543.287 145.656 542.221 146.839C541.168 148.011 539.818 148.923 538.173 149.574C536.528 150.213 534.646 150.533 532.527 150.533ZM550.092 150V122.727H556.324V127.273H556.608C557.105 125.698 557.957 124.485 559.165 123.633C560.384 122.769 561.775 122.337 563.337 122.337C563.692 122.337 564.089 122.354 564.527 122.39C564.977 122.414 565.35 122.455 565.646 122.514V128.427C565.373 128.332 564.941 128.249 564.349 128.178C563.769 128.095 563.207 128.054 562.663 128.054C561.491 128.054 560.437 128.308 559.502 128.817C558.579 129.315 557.851 130.007 557.318 130.895C556.786 131.783 556.519 132.807 556.519 133.967V150H550.092ZM580.689 150.533C578.026 150.533 575.718 149.947 573.764 148.775C571.811 147.603 570.296 145.964 569.219 143.857C568.154 141.75 567.621 139.287 567.621 136.47C567.621 133.653 568.154 131.185 569.219 129.066C570.296 126.947 571.811 125.302 573.764 124.13C575.718 122.958 578.026 122.372 580.689 122.372C583.352 122.372 585.661 122.958 587.614 124.13C589.567 125.302 591.076 126.947 592.142 129.066C593.219 131.185 593.757 133.653 593.757 136.47C593.757 139.287 593.219 141.75 592.142 143.857C591.076 145.964 589.567 147.603 587.614 148.775C585.661 149.947 583.352 150.533 580.689 150.533ZM580.725 145.384C582.169 145.384 583.376 144.987 584.347 144.194C585.317 143.389 586.039 142.312 586.513 140.962C586.998 139.613 587.241 138.11 587.241 136.452C587.241 134.783 586.998 133.274 586.513 131.925C586.039 130.563 585.317 129.48 584.347 128.675C583.376 127.871 582.169 127.468 580.725 127.468C579.245 127.468 578.014 127.871 577.031 128.675C576.061 129.48 575.333 130.563 574.847 131.925C574.374 133.274 574.137 134.783 574.137 136.452C574.137 138.11 574.374 139.613 574.847 140.962C575.333 142.312 576.061 143.389 577.031 144.194C578.014 144.987 579.245 145.384 580.725 145.384ZM623.689 150.533C620.955 150.533 618.593 149.964 616.604 148.828C614.628 147.68 613.107 146.058 612.041 143.963C610.976 141.856 610.443 139.376 610.443 136.523C610.443 133.718 610.976 131.256 612.041 129.137C613.118 127.006 614.622 125.349 616.551 124.165C618.481 122.97 620.747 122.372 623.352 122.372C625.032 122.372 626.619 122.644 628.11 123.189C629.613 123.722 630.939 124.55 632.087 125.675C633.247 126.799 634.159 128.232 634.822 129.972C635.485 131.7 635.816 133.759 635.816 136.151V138.121H613.462V133.789H629.655C629.643 132.558 629.377 131.463 628.856 130.504C628.335 129.534 627.607 128.77 626.672 128.214C625.749 127.657 624.671 127.379 623.44 127.379C622.126 127.379 620.972 127.699 619.978 128.338C618.984 128.965 618.208 129.794 617.652 130.824C617.107 131.842 616.829 132.96 616.817 134.18V137.962C616.817 139.548 617.107 140.909 617.688 142.045C618.268 143.17 619.078 144.034 620.12 144.638C621.162 145.23 622.381 145.526 623.778 145.526C624.713 145.526 625.559 145.395 626.317 145.135C627.074 144.863 627.731 144.466 628.288 143.945C628.844 143.424 629.264 142.779 629.548 142.01L635.55 142.685C635.171 144.271 634.449 145.656 633.384 146.839C632.33 148.011 630.981 148.923 629.335 149.574C627.69 150.213 625.808 150.533 623.689 150.533ZM647.681 134.02V150H641.254V122.727H647.397V127.362H647.717C648.344 125.835 649.344 124.621 650.718 123.722C652.102 122.822 653.813 122.372 655.849 122.372C657.731 122.372 659.37 122.775 660.767 123.58C662.176 124.384 663.265 125.55 664.034 127.077C664.816 128.604 665.2 130.457 665.188 132.635V150H658.761V133.629C658.761 131.806 658.287 130.38 657.34 129.35C656.405 128.32 655.109 127.805 653.452 127.805C652.327 127.805 651.327 128.054 650.451 128.551C649.587 129.036 648.906 129.741 648.409 130.664C647.924 131.587 647.681 132.706 647.681 134.02ZM704.171 123.633C704.005 122.082 703.307 120.875 702.076 120.011C700.857 119.147 699.27 118.714 697.317 118.714C695.944 118.714 694.766 118.922 693.784 119.336C692.801 119.75 692.05 120.312 691.529 121.023C691.008 121.733 690.742 122.544 690.73 123.455C690.73 124.213 690.902 124.87 691.245 125.426C691.6 125.982 692.079 126.456 692.683 126.847C693.287 127.225 693.956 127.545 694.689 127.805C695.423 128.066 696.163 128.285 696.909 128.462L700.318 129.315C701.691 129.634 703.011 130.066 704.278 130.611C705.556 131.155 706.698 131.842 707.704 132.67C708.722 133.499 709.527 134.499 710.119 135.671C710.711 136.843 711.007 138.216 711.007 139.79C711.007 141.921 710.462 143.797 709.373 145.419C708.284 147.029 706.71 148.29 704.65 149.201C702.603 150.101 700.123 150.55 697.211 150.55C694.382 150.55 691.925 150.112 689.842 149.237C687.771 148.361 686.149 147.082 684.977 145.401C683.817 143.72 683.19 141.673 683.095 139.258H689.576C689.671 140.524 690.061 141.578 690.748 142.418C691.434 143.259 692.328 143.886 693.429 144.3C694.541 144.715 695.784 144.922 697.157 144.922C698.59 144.922 699.845 144.709 700.922 144.283C702.011 143.845 702.863 143.241 703.479 142.472C704.094 141.69 704.408 140.779 704.42 139.737C704.408 138.79 704.13 138.009 703.585 137.393C703.041 136.766 702.277 136.245 701.295 135.831C700.324 135.405 699.188 135.026 697.885 134.695L693.748 133.629C690.754 132.86 688.386 131.694 686.646 130.131C684.918 128.557 684.054 126.468 684.054 123.864C684.054 121.721 684.634 119.845 685.794 118.235C686.966 116.625 688.558 115.376 690.57 114.489C692.582 113.589 694.861 113.139 697.406 113.139C699.987 113.139 702.247 113.589 704.189 114.489C706.142 115.376 707.675 116.613 708.787 118.2C709.9 119.774 710.474 121.585 710.51 123.633H704.171ZM716.596 150V122.727H723.023V150H716.596ZM719.827 118.857C718.809 118.857 717.933 118.519 717.199 117.844C716.465 117.158 716.098 116.335 716.098 115.376C716.098 114.406 716.465 113.583 717.199 112.908C717.933 112.222 718.809 111.879 719.827 111.879C720.857 111.879 721.733 112.222 722.455 112.908C723.189 113.583 723.556 114.406 723.556 115.376C723.556 116.335 723.189 117.158 722.455 117.844C721.733 118.519 720.857 118.857 719.827 118.857ZM751.188 129.936L745.329 130.575C745.163 129.983 744.873 129.427 744.459 128.906C744.056 128.385 743.512 127.965 742.825 127.646C742.139 127.326 741.298 127.166 740.304 127.166C738.966 127.166 737.842 127.456 736.93 128.036C736.031 128.616 735.587 129.368 735.599 130.291C735.587 131.084 735.877 131.729 736.469 132.227C737.072 132.724 738.067 133.132 739.452 133.452L744.104 134.446C746.684 135.002 748.602 135.884 749.856 137.092C751.123 138.299 751.762 139.879 751.774 141.832C751.762 143.549 751.259 145.064 750.265 146.378C749.282 147.68 747.915 148.698 746.163 149.432C744.411 150.166 742.399 150.533 740.126 150.533C736.788 150.533 734.101 149.834 732.065 148.438C730.029 147.029 728.816 145.07 728.425 142.56L734.693 141.957C734.977 143.188 735.581 144.117 736.504 144.744C737.427 145.372 738.629 145.685 740.108 145.685C741.635 145.685 742.861 145.372 743.784 144.744C744.719 144.117 745.187 143.342 745.187 142.418C745.187 141.637 744.885 140.992 744.281 140.483C743.689 139.974 742.766 139.583 741.511 139.311L736.859 138.335C734.243 137.79 732.308 136.873 731.053 135.582C729.798 134.28 729.177 132.635 729.189 130.646C729.177 128.965 729.633 127.509 730.556 126.278C731.491 125.036 732.787 124.077 734.444 123.402C736.113 122.715 738.037 122.372 740.215 122.372C743.411 122.372 745.926 123.053 747.761 124.414C749.608 125.775 750.75 127.616 751.188 129.936ZM770.693 122.727V127.699H755.014V122.727H770.693ZM758.885 116.193H765.313V141.797C765.313 142.661 765.443 143.324 765.703 143.786C765.976 144.235 766.331 144.543 766.769 144.709C767.207 144.875 767.692 144.957 768.225 144.957C768.627 144.957 768.994 144.928 769.325 144.869C769.669 144.809 769.929 144.756 770.107 144.709L771.19 149.734C770.847 149.852 770.355 149.982 769.716 150.124C769.089 150.266 768.319 150.349 767.408 150.373C765.798 150.42 764.348 150.178 763.058 149.645C761.767 149.1 760.744 148.26 759.986 147.124C759.24 145.987 758.873 144.567 758.885 142.862V116.193ZM787.849 150.533C785.115 150.533 782.753 149.964 780.765 148.828C778.788 147.68 777.267 146.058 776.201 143.963C775.136 141.856 774.603 139.376 774.603 136.523C774.603 133.718 775.136 131.256 776.201 129.137C777.279 127.006 778.782 125.349 780.711 124.165C782.641 122.97 784.908 122.372 787.512 122.372C789.193 122.372 790.779 122.644 792.27 123.189C793.774 123.722 795.099 124.55 796.248 125.675C797.408 126.799 798.319 128.232 798.982 129.972C799.645 131.7 799.976 133.759 799.976 136.151V138.121H777.622V133.789H793.815C793.803 132.558 793.537 131.463 793.016 130.504C792.495 129.534 791.767 128.77 790.832 128.214C789.909 127.657 788.832 127.379 787.6 127.379C786.287 127.379 785.132 127.699 784.138 128.338C783.144 128.965 782.368 129.794 781.812 130.824C781.268 131.842 780.989 132.96 780.978 134.18V137.962C780.978 139.548 781.268 140.909 781.848 142.045C782.428 143.17 783.239 144.034 784.28 144.638C785.322 145.23 786.541 145.526 787.938 145.526C788.873 145.526 789.719 145.395 790.477 145.135C791.234 144.863 791.891 144.466 792.448 143.945C793.004 143.424 793.424 142.779 793.708 142.01L799.71 142.685C799.331 144.271 798.609 145.656 797.544 146.839C796.49 148.011 795.141 148.923 793.495 149.574C791.85 150.213 789.968 150.533 787.849 150.533ZM805.414 150V122.727H811.557V127.362H811.877C812.445 125.799 813.386 124.58 814.7 123.704C816.014 122.816 817.582 122.372 819.405 122.372C821.252 122.372 822.809 122.822 824.075 123.722C825.354 124.609 826.253 125.823 826.774 127.362H827.058C827.662 125.846 828.68 124.639 830.112 123.739C831.556 122.828 833.267 122.372 835.243 122.372C837.753 122.372 839.801 123.165 841.387 124.751C842.973 126.338 843.766 128.652 843.766 131.694V150H837.321V132.688C837.321 130.996 836.871 129.759 835.971 128.977C835.072 128.184 833.971 127.788 832.669 127.788C831.118 127.788 829.905 128.273 829.029 129.244C828.165 130.202 827.733 131.451 827.733 132.99V150H821.43V132.422C821.43 131.013 821.003 129.889 820.151 129.048C819.311 128.208 818.21 127.788 816.849 127.788C815.925 127.788 815.085 128.024 814.327 128.498C813.57 128.96 812.966 129.616 812.516 130.469C812.066 131.309 811.841 132.292 811.841 133.416V150H805.414ZM858.135 150.55C856.407 150.55 854.85 150.243 853.465 149.627C852.092 149 851.003 148.076 850.198 146.857C849.405 145.638 849.009 144.135 849.009 142.347C849.009 140.808 849.293 139.536 849.861 138.53C850.429 137.524 851.204 136.719 852.187 136.115C853.169 135.511 854.276 135.056 855.507 134.748C856.75 134.428 858.034 134.197 859.36 134.055C860.958 133.89 862.254 133.742 863.249 133.612C864.243 133.469 864.965 133.256 865.415 132.972C865.876 132.676 866.107 132.221 866.107 131.605V131.499C866.107 130.161 865.711 129.125 864.918 128.391C864.125 127.657 862.982 127.29 861.491 127.29C859.916 127.29 858.668 127.634 857.744 128.32C856.833 129.007 856.217 129.818 855.898 130.753L849.896 129.901C850.37 128.243 851.151 126.858 852.24 125.746C853.329 124.621 854.661 123.781 856.235 123.224C857.809 122.656 859.549 122.372 861.455 122.372C862.769 122.372 864.077 122.526 865.379 122.834C866.681 123.142 867.871 123.651 868.948 124.361C870.025 125.059 870.889 126.012 871.54 127.219C872.203 128.427 872.535 129.936 872.535 131.747V150H866.356V146.254H866.143C865.752 147.011 865.202 147.721 864.491 148.384C863.793 149.035 862.911 149.562 861.846 149.964C860.792 150.355 859.555 150.55 858.135 150.55ZM859.804 145.827C861.094 145.827 862.213 145.573 863.16 145.064C864.107 144.543 864.835 143.857 865.344 143.004C865.865 142.152 866.125 141.223 866.125 140.217V137.003C865.924 137.169 865.58 137.322 865.095 137.464C864.622 137.607 864.089 137.731 863.497 137.837C862.905 137.944 862.319 138.039 861.739 138.121C861.159 138.204 860.656 138.275 860.23 138.335C859.271 138.465 858.413 138.678 857.656 138.974C856.898 139.27 856.3 139.684 855.862 140.217C855.424 140.737 855.205 141.412 855.205 142.241C855.205 143.424 855.637 144.318 856.501 144.922C857.366 145.526 858.466 145.827 859.804 145.827ZM900.553 129.936L894.694 130.575C894.528 129.983 894.238 129.427 893.824 128.906C893.421 128.385 892.877 127.965 892.19 127.646C891.504 127.326 890.663 127.166 889.669 127.166C888.331 127.166 887.207 127.456 886.295 128.036C885.396 128.616 884.952 129.368 884.964 130.291C884.952 131.084 885.242 131.729 885.834 132.227C886.438 132.724 887.432 133.132 888.817 133.452L893.469 134.446C896.049 135.002 897.967 135.884 899.222 137.092C900.488 138.299 901.127 139.879 901.139 141.832C901.127 143.549 900.624 145.064 899.63 146.378C898.647 147.68 897.28 148.698 895.528 149.432C893.777 150.166 891.764 150.533 889.491 150.533C886.153 150.533 883.466 149.834 881.43 148.438C879.394 147.029 878.181 145.07 877.79 142.56L884.058 141.957C884.342 143.188 884.946 144.117 885.869 144.744C886.793 145.372 887.994 145.685 889.474 145.685C891.001 145.685 892.226 145.372 893.149 144.744C894.084 144.117 894.552 143.342 894.552 142.418C894.552 141.637 894.25 140.992 893.646 140.483C893.054 139.974 892.131 139.583 890.876 139.311L886.224 138.335C883.608 137.79 881.673 136.873 880.418 135.582C879.164 134.28 878.542 132.635 878.554 130.646C878.542 128.965 878.998 127.509 879.921 126.278C880.856 125.036 882.152 124.077 883.81 123.402C885.479 122.715 887.402 122.372 889.58 122.372C892.776 122.372 895.292 123.053 897.126 124.414C898.973 125.775 900.115 127.616 900.553 129.936ZM922.837 160.227C921.961 160.227 921.15 160.156 920.404 160.014C919.67 159.884 919.084 159.73 918.646 159.553L920.138 154.545C921.073 154.818 921.907 154.948 922.641 154.936C923.375 154.924 924.02 154.693 924.577 154.244C925.145 153.806 925.624 153.072 926.015 152.042L926.565 150.568L916.675 122.727H923.494L929.779 143.324H930.063L936.366 122.727H943.202L932.283 153.303C931.774 154.747 931.099 155.984 930.259 157.013C929.418 158.055 928.388 158.848 927.169 159.393C925.962 159.949 924.518 160.227 922.837 160.227ZM122.712 186.906H116.072C115.882 185.817 115.533 184.852 115.024 184.011C114.515 183.159 113.882 182.437 113.124 181.845C112.367 181.253 111.503 180.809 110.532 180.513C109.573 180.206 108.537 180.052 107.425 180.052C105.448 180.052 103.696 180.549 102.169 181.543C100.642 182.526 99.4465 183.97 98.5824 185.876C97.7183 187.77 97.2862 190.084 97.2862 192.818C97.2862 195.6 97.7183 197.944 98.5824 199.849C99.4583 201.743 100.654 203.176 102.169 204.146C103.696 205.105 105.442 205.585 107.407 205.585C108.496 205.585 109.514 205.442 110.461 205.158C111.42 204.862 112.278 204.43 113.036 203.862C113.805 203.294 114.45 202.596 114.971 201.767C115.504 200.938 115.871 199.991 116.072 198.926L122.712 198.962C122.464 200.69 121.925 202.312 121.097 203.827C120.28 205.342 119.209 206.679 117.883 207.839C116.557 208.988 115.006 209.887 113.231 210.538C111.455 211.178 109.484 211.497 107.318 211.497C104.122 211.497 101.269 210.757 98.7599 209.278C96.2505 207.798 94.2737 205.661 92.8295 202.868C91.3854 200.074 90.6634 196.724 90.6634 192.818C90.6634 188.9 91.3913 185.55 92.8473 182.768C94.3033 179.975 96.286 177.838 98.7955 176.359C101.305 174.879 104.146 174.139 107.318 174.139C109.342 174.139 111.224 174.423 112.964 174.991C114.705 175.56 116.255 176.394 117.616 177.495C118.978 178.584 120.096 179.922 120.972 181.508C121.86 183.082 122.44 184.881 122.712 186.906ZM140.357 211.533C137.694 211.533 135.385 210.947 133.432 209.775C131.479 208.603 129.964 206.964 128.887 204.857C127.822 202.75 127.289 200.287 127.289 197.47C127.289 194.653 127.822 192.185 128.887 190.066C129.964 187.947 131.479 186.302 133.432 185.13C135.385 183.958 137.694 183.372 140.357 183.372C143.02 183.372 145.329 183.958 147.282 185.13C149.235 186.302 150.744 187.947 151.809 190.066C152.887 192.185 153.425 194.653 153.425 197.47C153.425 200.287 152.887 202.75 151.809 204.857C150.744 206.964 149.235 208.603 147.282 209.775C145.329 210.947 143.02 211.533 140.357 211.533ZM140.393 206.384C141.837 206.384 143.044 205.987 144.015 205.194C144.985 204.389 145.707 203.312 146.181 201.962C146.666 200.613 146.909 199.11 146.909 197.452C146.909 195.783 146.666 194.274 146.181 192.925C145.707 191.563 144.985 190.48 144.015 189.675C143.044 188.871 141.837 188.468 140.393 188.468C138.913 188.468 137.682 188.871 136.699 189.675C135.729 190.48 135.001 191.563 134.515 192.925C134.042 194.274 133.805 195.783 133.805 197.452C133.805 199.11 134.042 200.613 134.515 201.962C135.001 203.312 135.729 204.389 136.699 205.194C137.682 205.987 138.913 206.384 140.393 206.384ZM158.881 211V183.727H165.024V188.362H165.344C165.912 186.799 166.853 185.58 168.167 184.704C169.481 183.816 171.049 183.372 172.872 183.372C174.719 183.372 176.275 183.822 177.542 184.722C178.82 185.609 179.72 186.823 180.241 188.362H180.525C181.129 186.846 182.147 185.639 183.579 184.739C185.023 183.828 186.733 183.372 188.71 183.372C191.22 183.372 193.268 184.165 194.854 185.751C196.44 187.338 197.233 189.652 197.233 192.694V211H190.788V193.688C190.788 191.996 190.338 190.759 189.438 189.977C188.539 189.184 187.438 188.788 186.136 188.788C184.585 188.788 183.372 189.273 182.496 190.244C181.632 191.202 181.2 192.451 181.2 193.99V211H174.896V193.422C174.896 192.013 174.47 190.889 173.618 190.048C172.777 189.208 171.677 188.788 170.315 188.788C169.392 188.788 168.552 189.024 167.794 189.498C167.036 189.96 166.433 190.616 165.983 191.469C165.533 192.309 165.308 193.292 165.308 194.416V211H158.881ZM203.754 221.227V183.727H210.075V188.237H210.448C210.779 187.574 211.247 186.87 211.85 186.124C212.454 185.367 213.271 184.722 214.301 184.189C215.33 183.644 216.644 183.372 218.242 183.372C220.349 183.372 222.249 183.911 223.942 184.988C225.646 186.053 226.996 187.634 227.99 189.729C228.996 191.812 229.499 194.369 229.499 197.399C229.499 200.394 229.008 202.939 228.026 205.034C227.043 207.129 225.706 208.727 224.013 209.828C222.32 210.929 220.403 211.479 218.26 211.479C216.698 211.479 215.401 211.219 214.372 210.698C213.342 210.177 212.513 209.55 211.886 208.816C211.27 208.07 210.791 207.366 210.448 206.703H210.181V221.227H203.754ZM210.057 197.364C210.057 199.127 210.306 200.672 210.803 201.998C211.312 203.324 212.04 204.359 212.987 205.105C213.945 205.839 215.106 206.206 216.467 206.206C217.887 206.206 219.077 205.827 220.036 205.07C220.994 204.3 221.717 203.253 222.202 201.927C222.699 200.589 222.948 199.068 222.948 197.364C222.948 195.671 222.705 194.168 222.22 192.854C221.734 191.54 221.012 190.51 220.053 189.764C219.095 189.018 217.899 188.646 216.467 188.646C215.094 188.646 213.928 189.007 212.969 189.729C212.01 190.451 211.282 191.463 210.785 192.765C210.3 194.067 210.057 195.6 210.057 197.364ZM252.387 199.53V183.727H258.814V211H252.582V206.153H252.298C251.682 207.68 250.67 208.929 249.262 209.899C247.865 210.87 246.142 211.355 244.095 211.355C242.307 211.355 240.727 210.959 239.354 210.165C237.993 209.361 236.927 208.195 236.158 206.668C235.388 205.129 235.004 203.27 235.004 201.092V183.727H241.431V200.098C241.431 201.826 241.905 203.199 242.852 204.217C243.799 205.235 245.042 205.744 246.58 205.744C247.527 205.744 248.445 205.513 249.333 205.052C250.22 204.59 250.948 203.904 251.517 202.992C252.097 202.069 252.387 200.915 252.387 199.53ZM279.042 183.727V188.699H263.364V183.727H279.042ZM267.235 177.193H273.662V202.797C273.662 203.661 273.792 204.324 274.053 204.786C274.325 205.235 274.68 205.543 275.118 205.709C275.556 205.875 276.042 205.957 276.574 205.957C276.977 205.957 277.344 205.928 277.675 205.869C278.018 205.809 278.279 205.756 278.456 205.709L279.539 210.734C279.196 210.852 278.705 210.982 278.066 211.124C277.438 211.266 276.669 211.349 275.757 211.373C274.148 211.42 272.698 211.178 271.407 210.645C270.117 210.1 269.093 209.26 268.336 208.124C267.59 206.987 267.223 205.567 267.235 203.862V177.193ZM292.266 211.55C290.538 211.55 288.981 211.243 287.596 210.627C286.223 210 285.134 209.076 284.329 207.857C283.536 206.638 283.139 205.135 283.139 203.347C283.139 201.808 283.423 200.536 283.992 199.53C284.56 198.524 285.335 197.719 286.318 197.115C287.3 196.511 288.407 196.056 289.638 195.748C290.881 195.428 292.165 195.197 293.491 195.055C295.089 194.89 296.385 194.742 297.379 194.612C298.374 194.469 299.096 194.256 299.546 193.972C300.007 193.676 300.238 193.221 300.238 192.605V192.499C300.238 191.161 299.842 190.125 299.048 189.391C298.255 188.657 297.113 188.29 295.622 188.29C294.047 188.29 292.798 188.634 291.875 189.32C290.964 190.007 290.348 190.818 290.029 191.753L284.027 190.901C284.501 189.243 285.282 187.858 286.371 186.746C287.46 185.621 288.792 184.781 290.366 184.224C291.94 183.656 293.68 183.372 295.586 183.372C296.9 183.372 298.208 183.526 299.51 183.834C300.812 184.142 302.002 184.651 303.079 185.361C304.156 186.059 305.02 187.012 305.671 188.219C306.334 189.427 306.666 190.936 306.666 192.747V211H300.487V207.254H300.274C299.883 208.011 299.333 208.721 298.622 209.384C297.924 210.035 297.042 210.562 295.977 210.964C294.923 211.355 293.686 211.55 292.266 211.55ZM293.935 206.827C295.225 206.827 296.344 206.573 297.291 206.064C298.238 205.543 298.966 204.857 299.475 204.004C299.995 203.152 300.256 202.223 300.256 201.217V198.003C300.055 198.169 299.711 198.322 299.226 198.464C298.753 198.607 298.22 198.731 297.628 198.837C297.036 198.944 296.45 199.039 295.87 199.121C295.29 199.204 294.787 199.275 294.361 199.335C293.402 199.465 292.544 199.678 291.786 199.974C291.029 200.27 290.431 200.684 289.993 201.217C289.555 201.737 289.336 202.412 289.336 203.241C289.336 204.424 289.768 205.318 290.632 205.922C291.496 206.526 292.597 206.827 293.935 206.827ZM325.025 211.533C322.302 211.533 319.965 210.935 318.012 209.739C316.07 208.544 314.573 206.893 313.519 204.786C312.478 202.667 311.957 200.228 311.957 197.47C311.957 194.7 312.49 192.256 313.555 190.137C314.62 188.006 316.124 186.349 318.065 185.165C320.018 183.97 322.326 183.372 324.99 183.372C327.203 183.372 329.162 183.781 330.867 184.597C332.583 185.402 333.95 186.545 334.968 188.024C335.986 189.492 336.566 191.208 336.708 193.173H330.565C330.316 191.859 329.724 190.764 328.789 189.888C327.866 189.001 326.629 188.557 325.078 188.557C323.764 188.557 322.61 188.912 321.616 189.622C320.622 190.321 319.846 191.327 319.29 192.641C318.745 193.955 318.473 195.529 318.473 197.364C318.473 199.222 318.745 200.82 319.29 202.158C319.834 203.483 320.598 204.507 321.58 205.229C322.575 205.94 323.741 206.295 325.078 206.295C326.025 206.295 326.872 206.117 327.617 205.762C328.375 205.395 329.008 204.868 329.517 204.182C330.026 203.495 330.375 202.661 330.565 201.678H336.708C336.554 203.608 335.986 205.318 335.004 206.81C334.021 208.289 332.684 209.449 330.991 210.29C329.298 211.118 327.31 211.533 325.025 211.533ZM341.986 211V183.727H348.414V211H341.986ZM345.218 179.857C344.2 179.857 343.324 179.519 342.59 178.844C341.856 178.158 341.489 177.335 341.489 176.376C341.489 175.406 341.856 174.583 342.59 173.908C343.324 173.222 344.2 172.879 345.218 172.879C346.248 172.879 347.123 173.222 347.846 173.908C348.579 174.583 348.946 175.406 348.946 176.376C348.946 177.335 348.579 178.158 347.846 178.844C347.123 179.519 346.248 179.857 345.218 179.857ZM366.92 211.533C364.256 211.533 361.948 210.947 359.995 209.775C358.042 208.603 356.527 206.964 355.449 204.857C354.384 202.75 353.851 200.287 353.851 197.47C353.851 194.653 354.384 192.185 355.449 190.066C356.527 187.947 358.042 186.302 359.995 185.13C361.948 183.958 364.256 183.372 366.92 183.372C369.583 183.372 371.891 183.958 373.844 185.13C375.797 186.302 377.307 187.947 378.372 190.066C379.449 192.185 379.988 194.653 379.988 197.47C379.988 200.287 379.449 202.75 378.372 204.857C377.307 206.964 375.797 208.603 373.844 209.775C371.891 210.947 369.583 211.533 366.92 211.533ZM366.955 206.384C368.399 206.384 369.607 205.987 370.577 205.194C371.548 204.389 372.27 203.312 372.743 201.962C373.229 200.613 373.471 199.11 373.471 197.452C373.471 195.783 373.229 194.274 372.743 192.925C372.27 191.563 371.548 190.48 370.577 189.675C369.607 188.871 368.399 188.468 366.955 188.468C365.475 188.468 364.244 188.871 363.262 189.675C362.291 190.48 361.563 191.563 361.078 192.925C360.604 194.274 360.368 195.783 360.368 197.452C360.368 199.11 360.604 200.613 361.078 201.962C361.563 203.312 362.291 204.389 363.262 205.194C364.244 205.987 365.475 206.384 366.955 206.384ZM364.452 180.141L368.429 172.026H374.714L369.263 180.141H364.452ZM391.871 195.02V211H385.443V183.727H391.587V188.362H391.906C392.534 186.835 393.534 185.621 394.907 184.722C396.292 183.822 398.002 183.372 400.038 183.372C401.92 183.372 403.56 183.775 404.957 184.58C406.365 185.384 407.454 186.55 408.224 188.077C409.005 189.604 409.39 191.457 409.378 193.635V211H402.95V194.629C402.95 192.806 402.477 191.38 401.53 190.35C400.595 189.32 399.299 188.805 397.641 188.805C396.517 188.805 395.517 189.054 394.641 189.551C393.777 190.036 393.096 190.741 392.599 191.664C392.113 192.587 391.871 193.706 391.871 195.02ZM419.871 211.391C418.794 211.391 417.871 211.012 417.102 210.254C416.332 209.497 415.953 208.573 415.965 207.484C415.953 206.419 416.332 205.508 417.102 204.75C417.871 203.992 418.794 203.614 419.871 203.614C420.913 203.614 421.819 203.992 422.588 204.75C423.369 205.508 423.766 206.419 423.778 207.484C423.766 208.206 423.576 208.863 423.21 209.455C422.854 210.047 422.381 210.521 421.789 210.876C421.209 211.219 420.57 211.391 419.871 211.391Z" fill="white"/>
<path d="M6.60511 135.193V122.764C14.6544 122.764 20.2652 121.131 23.4375 117.864C26.6572 114.549 28.267 109.175 28.267 101.741V83.6307C28.267 75.6288 29.2614 69.071 31.25 63.9574C33.286 58.8437 36.2453 54.8665 40.1278 52.0256C44.0104 49.1847 48.7453 47.2197 54.3324 46.1307C59.9195 44.9943 66.2642 44.4261 73.3665 44.4261V64.1705C67.7794 64.1705 63.4943 64.9517 60.5114 66.5142C57.5284 68.0294 55.4688 70.3731 54.3324 73.5455C53.2434 76.7178 52.6989 80.7661 52.6989 85.6903V108.986C52.6989 112.632 52.0833 116.041 50.8523 119.213C49.6212 122.385 47.3722 125.179 44.1051 127.594C40.8381 129.961 36.1742 131.831 30.1136 133.205C24.1004 134.53 16.2642 135.193 6.60511 135.193ZM73.3665 224.895C66.2642 224.895 59.9195 224.327 54.3324 223.19C48.7453 222.101 44.0104 220.136 40.1278 217.295C36.2453 214.455 33.286 210.477 31.25 205.364C29.2614 200.25 28.267 193.692 28.267 185.69V167.651C28.267 160.217 26.6572 154.866 23.4375 151.599C20.2652 148.285 14.6544 146.628 6.60511 146.628V134.199C16.2642 134.199 24.1004 134.885 30.1136 136.259C36.1742 137.584 40.8381 139.455 44.1051 141.869C47.3722 144.237 49.6212 147.007 50.8523 150.179C52.0833 153.351 52.6989 156.737 52.6989 160.335V183.631C52.6989 188.555 53.2434 192.603 54.3324 195.776C55.4688 198.948 57.5284 201.315 60.5114 202.878C63.4943 204.44 67.7794 205.222 73.3665 205.222V224.895ZM6.60511 146.628V122.764H29.1193V146.628H6.60511Z" fill="white"/>
<path d="M1029.09 134.199V146.628C1021.04 146.628 1015.4 148.285 1012.18 151.599C1009.01 154.866 1007.43 160.217 1007.43 167.651V185.69C1007.43 193.692 1006.41 200.25 1004.37 205.364C1002.38 210.477 999.448 214.455 995.565 217.295C991.683 220.136 986.948 222.101 981.361 223.19C975.774 224.327 969.429 224.895 962.327 224.895V205.222C967.914 205.222 972.199 204.44 975.182 202.878C978.165 201.315 980.201 198.948 981.29 195.776C982.426 192.603 982.994 188.555 982.994 183.631V160.335C982.994 156.737 983.61 153.351 984.841 150.179C986.072 147.007 988.321 144.237 991.588 141.869C994.855 139.455 999.495 137.584 1005.51 136.259C1011.57 134.885 1019.43 134.199 1029.09 134.199ZM962.327 44.4261C969.429 44.4261 975.774 44.9943 981.361 46.1307C986.948 47.2197 991.683 49.1847 995.565 52.0256C999.448 54.8665 1002.38 58.8437 1004.37 63.9574C1006.41 69.071 1007.43 75.6288 1007.43 83.6307V101.741C1007.43 109.175 1009.01 114.549 1012.18 117.864C1015.4 121.131 1021.04 122.764 1029.09 122.764V135.193C1019.43 135.193 1011.57 134.53 1005.51 133.205C999.495 131.831 994.855 129.961 991.588 127.594C988.321 125.179 986.072 122.385 984.841 119.213C983.61 116.041 982.994 112.632 982.994 108.986V85.6903C982.994 80.7661 982.426 76.7178 981.29 73.5455C980.201 70.3731 978.165 68.0294 975.182 66.5142C972.199 64.9517 967.914 64.1705 962.327 64.1705V44.4261ZM1029.09 122.764V146.628H1006.57V122.764H1029.09Z" fill="white"/>
</svg>
