<svg width="174" height="149" viewBox="0 0 174 149" fill="none" xmlns="http://www.w3.org/2000/svg">
<rect x="2.5" y="2.5" width="169" height="144" fill="white" stroke="#18212A" stroke-width="5"/>
<path d="M61.4888 58.4821L52.4033 64.3931L44.5609 69.4954C43.9665 69.882 43.9522 70.7472 44.5334 71.1533L60.8384 82.5456" stroke="#18212A" stroke-width="8"/>
<path d="M99 82.0635L108.085 76.1525L115.928 71.0502C116.522 70.6636 116.537 69.7984 115.955 69.3923L99.6504 58" stroke="#18212A" stroke-width="8"/>
<path d="M27.1104 25.5547H147.703C149.114 25.5547 150.258 26.6993 150.258 28.1104V110.89C150.258 112.301 149.114 113.445 147.703 113.445H88.2637C86.1012 113.445 84.0397 114.359 82.5869 115.961L68.2549 131.763C67.2661 132.853 65.5626 132.884 64.5342 131.831L48.8311 115.754C47.3889 114.278 45.4124 113.445 43.3486 113.445H27.1104C25.6993 113.445 24.5547 112.301 24.5547 110.89V28.1104C24.5547 26.6993 25.6993 25.5547 27.1104 25.5547Z" stroke="#18212A" stroke-width="5.10989"/>
<path d="M87 52.3518L83.5495 61.2153L79.8146 70.8176L73 88.3518" stroke="#18212A" stroke-width="8"/>
</svg>
