<svg width="513" height="513" viewBox="0 0 513 513" fill="none" xmlns="http://www.w3.org/2000/svg">
<path d="M181.193 146.093L145.633 172.525L111.111 198.185C110.586 198.575 110.576 199.358 111.091 199.769L178.647 253.696" stroke="white" stroke-width="25"/>
<path d="M328.011 251.54L363.571 225.109L398.093 199.449C398.617 199.059 398.627 198.275 398.113 197.865L330.556 143.938" stroke="white" stroke-width="25"/>
<path d="M500.236 12.5336V403.394H253.698C248.325 403.394 243.246 405.846 239.906 410.054L174.55 492.379L103.746 409.56L103.427 409.199C100.094 405.508 95.3477 403.394 90.3599 403.394H13.2358V12.5336H500.236Z" stroke="white" stroke-width="25"/>
<path d="M281.043 118.681L267.538 158.315L252.919 201.253L226.247 279.659" stroke="white" stroke-width="25"/>
</svg>
