<svg width="353" height="149" viewBox="0 0 353 149" fill="none" xmlns="http://www.w3.org/2000/svg">
<rect x="111.5" y="2.5" width="228" height="144" rx="47.5" fill="#18212A" stroke="#18212A" stroke-width="5"/>
<rect x="2.5" y="2.5" width="169" height="144" fill="white" stroke="#18212A" stroke-width="5"/>
<path d="M63.4888 58.4821L54.4033 64.3931L46.5609 69.4954C45.9665 69.882 45.9522 70.7472 46.5334 71.1533L62.8384 82.5456" stroke="#18212A" stroke-width="8"/>
<path d="M101 82.0635L110.085 76.1525L117.928 71.0502C118.522 70.6636 118.537 69.7984 117.955 69.3923L101.65 58" stroke="#18212A" stroke-width="8"/>
<path d="M22.1099 24.5549H142.703C144.114 24.5549 145.258 25.6988 145.258 27.1099V67.5V109.89C145.258 111.301 144.114 112.445 142.703 112.445H83.264C81.1014 112.445 79.0394 113.359 77.5866 114.961L63.2547 130.762C62.2659 131.853 60.5629 131.884 59.5345 130.831L43.8314 114.754C42.3891 113.278 40.4123 112.445 38.3482 112.445H22.1099C20.6989 112.445 19.555 111.301 19.555 109.89V27.1099C19.555 25.6988 20.6989 24.5549 22.1099 24.5549Z" stroke="#18212A" stroke-width="5.10989"/>
<path d="M89 52.3518L85.5495 61.2153L81.8146 70.8176L75 88.3518" stroke="#18212A" stroke-width="8"/>
<path d="M208 69.5C209.375 69.5 209.938 70.75 209.938 71.5C209.938 72.9375 205.75 77.0625 199.625 77.0625C191.062 77.0625 185.938 69.6875 185.938 63.0625C185.938 56.5625 190.938 49.0625 199.625 49.0625C205.875 49.0625 209.938 53.25 209.938 54.625C209.938 55.375 209.312 56.625 207.938 56.625C205.938 56.625 205.062 53.0625 199.625 53.0625C193.5 53.0625 189.938 58.375 189.938 63.0625C189.938 67.6875 193.438 73.0625 199.625 73.0625C205.125 73 206 69.5 208 69.5ZM233.812 74.25C234.25 75.25 233.75 76.4375 232.75 76.875C232.5 77 232.25 77.0625 232 77.0625C231.188 77.0625 230.438 76.5625 230.125 75.8125L228.125 71.0625H215.812L213.812 75.8125C213.375 76.8125 212.25 77.3125 211.188 76.875C210.188 76.4375 209.688 75.3125 210.125 74.25L220.125 50.25C220.438 49.5 221.188 49.0625 222 49.0625C222.75 49.0625 223.5 49.5 223.812 50.25L233.812 74.25ZM217.438 67H226.5L222 56.25L217.438 67ZM262 51.0625V75.0625C262 76.125 261.062 77.0625 260 77.0625C258.875 77.0625 258 76.125 258 75.0625V57.625L249.625 70.125C248.875 71.25 247.062 71.25 246.312 70.125L238 57.625V75C238 76.125 237.062 77 236 77C234.875 77 234 76.125 234 75V51C234 50.125 234.562 49.375 235.375 49.125C236.25 48.875 237.125 49.1875 237.625 49.9375L248 65.4375L258.312 49.9375C258.812 49.1875 259.688 48.875 260.562 49.125C261.375 49.375 262 50.125 262 51.0625ZM282 75C282 76.125 281.062 77 280 77H264C262.875 77 262 76.125 262 75C262 73.9375 262.875 73 264 73H270V53H264C262.875 53 262 52.125 262 51C262 49.9375 262.875 49 264 49H280C281.062 49 282 49.9375 282 51C282 52.125 281.062 53 280 53H274V73H280C281.062 73 282 73.9375 282 75ZM302 75C302 76.125 301.062 77 300 77H286C284.875 77 284 76.125 284 75V51C284 49.9375 284.875 49.0625 286 49.0625C287.062 49.0625 288 49.9375 288 51.0625V73.0625H300C301.062 73 302 73.9375 302 75ZM316 49.0625C323.688 49.0625 330 55.3125 330 63.0625C330 70.75 323.688 77.0625 316 77.0625C308.25 77.0625 302 70.75 302 63.0625C302 55.3125 308.25 49.0625 316 49.0625ZM316 73C321.5 73 326 68.5 326 63C326 57.5625 321.5 53.0625 316 53.0625C310.438 53.0625 306 57.5 306 63C306 68.5625 310.438 73 316 73ZM208 101.5C209.375 101.5 209.938 102.75 209.938 103.5C209.938 104.938 205.75 109.062 199.625 109.062C191.062 109.062 185.938 101.688 185.938 95.0625C185.938 88.5625 190.938 81.0625 199.625 81.0625C205.875 81.0625 209.938 85.25 209.938 86.625C209.938 87.375 209.312 88.625 207.938 88.625C205.938 88.625 205.062 85.0625 199.625 85.0625C193.5 85.0625 189.938 90.375 189.938 95.0625C189.938 99.6875 193.438 105.062 199.625 105.062C205.125 105 206 101.5 208 101.5ZM234 83.0625V97.125C234 103.625 228.562 109.062 222 109.062C215.375 109.062 210 103.688 210 97.125V83.0625C210 81.9375 210.875 81.0625 212 81.0625C213.062 81.0625 214 81.9375 214 83.0625V97.125C214 101.5 217.562 105.062 222 105.062C226.375 105.062 230 101.5 230 97.125V83.0625C230 81.9375 230.875 81.0625 232 81.0625C233.062 81.0625 234 81.9375 234 83.0625ZM254 107C254 108.125 253.062 109 252 109H236C234.875 109 234 108.125 234 107V83C234 81.9375 234.875 81.0625 236 81.0625H252C253.062 81.0625 254 81.9375 254 83.0625C254 84.125 253.062 85.0625 252 85.0625H238V93.0625H248C249.062 93.0625 250 93.9375 250 95C250 96.125 249.062 97.0625 248 97.0625H238V105.062H252C253.062 105 254 105.938 254 107ZM278 83.0625V107.062C278 107.875 277.438 108.625 276.625 108.938C276.438 109 276.188 109 276 109C275.375 109 274.812 108.75 274.438 108.312L258 88.5625V107C258 108.125 257.062 109 256 109C254.875 109 254 108.125 254 107V83C254 82.1875 254.5 81.4375 255.312 81.125C256.062 80.875 256.938 81.125 257.5 81.75L274 101.5V83C274 81.9375 274.875 81 276 81C277.062 81 278 81.9375 278 83.0625ZM300 101.5C301.375 101.5 301.938 102.75 301.938 103.5C301.938 104.938 297.75 109.062 291.625 109.062C283.062 109.062 277.938 101.688 277.938 95.0625C277.938 88.5625 282.938 81.0625 291.625 81.0625C297.875 81.0625 301.938 85.25 301.938 86.625C301.938 87.375 301.312 88.625 299.938 88.625C297.938 88.625 297.062 85.0625 291.625 85.0625C285.5 85.0625 281.938 90.375 281.938 95.0625C281.938 99.6875 285.438 105.062 291.625 105.062C297.125 105 298 101.5 300 101.5ZM325.812 106.25C326.25 107.25 325.75 108.438 324.75 108.875C324.5 109 324.25 109.062 324 109.062C323.188 109.062 322.438 108.562 322.125 107.812L320.125 103.062H307.812L305.812 107.812C305.375 108.812 304.25 109.312 303.188 108.875C302.188 108.438 301.688 107.312 302.125 106.25L312.125 82.25C312.438 81.5 313.188 81.0625 314 81.0625C314.75 81.0625 315.5 81.5 315.812 82.25L325.812 106.25ZM309.438 99H318.5L314 88.25L309.438 99Z" fill="white"/>
</svg>
